# xmcd CD database file
#
# Track frame offsets:
#	150
#	19707
#	44047
#	64625
#	85770
#	104730
#	124215
#	145935
#	160975
#	184647
#
# Disc length: 2727 seconds
#
# Revision: 0
# Processed by: cddbd v1.5PL3 Copyright (c) Steve Scherf et al.
# Submitted via: CDex 1.51
#
DISCID=8a0aa50a
DTITLE=椎名恵 - ２９　Twenty-nine W concerto?
DYEAR=1988
DGENRE=Pop
TTITLE0=八階のアパートメント
TTITLE1=２９　Twenty-nine
TTITLE2=月曜と雨の日は
TTITLE3=ささやかな喜び
TTITLE4=遠すぎた六月
TTITLE5=彼と彼と彼女と
TTITLE6=１２月の熱い夏
TTITLE7=ただ一脚の椅子
TTITLE8=１４時間遅れの誕生日
TTITLE9=最初の恋　最後の恋
EXTD=YEAR: 1988
EXTT0=
EXTT1=
EXTT2=
EXTT3=
EXTT4=
EXTT5=
EXTT6=
EXTT7=
EXTT8=
EXTT9=
PLAYORDER=
